<svg height="121" viewBox="0 0 120 121" width="120" xmlns="http://www.w3.org/2000/svg">
    <g fill="none" fill-rule="evenodd" transform="translate(6 7)">
        <path
            d="m104-1.00494761c1.380712 0 2.630712.55964406 3.535534 1.46446609s1.464466 2.15482203 1.464466 3.53553391v99.99999961c0 1.380712-.559644 2.630712-1.464466 3.535534s-2.154822 1.464466-3.535534 1.464466h-100c-1.38071187 0-2.63071187-.559644-3.53553391-1.464466-.90482203-.904822-1.46446609-2.154822-1.46446609-3.535534v-99.99999961c0-1.38071188.55964406-2.63071188 1.46446609-3.53553391.90482204-.90482203 2.15482204-1.46446609 3.53553391-1.46446609z"
            stroke="#512da8" stroke-linejoin="round" stroke-width="2" />
        <path d="m4-.00494761h50v107.99999961h-50c-2.209139 0-4-1.790861-4-4v-99.99999961c0-2.209139 1.790861-4 4-4z"
            fill="#673ab7" />
        <path d="m54 0h50c2.209139 0 4 1.790861 4 4v100c0 2.209139-1.790861 4-4 4h-50z" fill="#fff" />
        <g fill-rule="nonzero">
            <path
                d="m54 74.4670524v-6.732l13.536 8.172-3.564-15.408 11.952-10.404-15.768-1.332-6.156-14.508v-14.76l10.116 23.868 25.884 2.196-19.656 17.028 5.904 25.308z"
                fill="#673ab7" />
            <path
                d="m54 74.4670524v-6.732l-13.536 8.172 3.564-15.408-11.952-10.404 15.768-1.332 6.156-14.508v-14.76l-10.116 23.868-25.884 2.196 19.656 17.028-5.904 25.308z"
                fill="#fff" />
        </g>
    </g>
</svg>